<svg width="34" height="34" fill="none" xmlns="http://www.w3.org/2000/svg"><path fill-rule="evenodd" clip-rule="evenodd" d="M15.724 6.99c.5.427.939.932 1.276 1.498a6.065 6.065 0 0 1 1.276-1.497c1.152-.983 2.684-1.599 4.214-1.599 1.07 0 2.217.303 3.205.814.985.51 1.883 1.263 2.375 2.219a.73.73 0 0 1 .032.072l3.007 7.906a7.335 7.335 0 0 1-3.95 10.763 7.331 7.331 0 0 1-9.615-6.245h-1.088a7.332 7.332 0 0 1-9.617 6.252 7.334 7.334 0 0 1-3.948-10.77l3.007-7.906a.711.711 0 0 1 .032-.07c.493-.958 1.39-1.712 2.374-2.221.99-.511 2.136-.814 3.206-.814 1.53 0 3.062.616 4.214 1.599ZM3.94 20.217a5.216 5.216 0 1 1 10.432 0 5.216 5.216 0 0 1-10.432 0Zm15.686 0a5.216 5.216 0 1 1 10.432 0 5.216 5.216 0 0 1-10.432 0Z" fill="#fff"/></svg>