<svg width="31" height="23" fill="none" xmlns="http://www.w3.org/2000/svg"><path fill-rule="evenodd" clip-rule="evenodd" d="M13.902 1.598c.5.426.938.932 1.276 1.498a6.064 6.064 0 0 1 1.276-1.498C17.606.616 19.138 0 20.668 0c1.07 0 2.217.302 3.205.813.985.51 1.883 1.264 2.374 2.22a.756.756 0 0 1 .033.071l3.007 7.906a7.331 7.331 0 0 1-7.198 11.08 7.331 7.331 0 0 1-6.368-6.562h-1.087A7.335 7.335 0 1 1 1.07 11.01l3.007-7.906a.712.712 0 0 1 .032-.07c.493-.957 1.39-1.711 2.373-2.22C7.471.301 8.617 0 9.687 0c1.53 0 3.063.616 4.215 1.598ZM2.119 14.824a5.216 5.216 0 1 1 10.432 0 5.216 5.216 0 0 1-10.432 0Zm15.686 0a5.216 5.216 0 1 1 10.432 0 5.216 5.216 0 0 1-10.432 0Z" fill="#707070"/></svg>