<svg width="34" height="34" viewBox="0 0 34 34" fill="none" xmlns="http://www.w3.org/2000/svg">
<path fill-rule="evenodd" clip-rule="evenodd" d="M15.7238 6.9906C16.2235 7.41696 16.6626 7.92237 17 8.48849C17.3374 7.92237 17.7765 7.41696 18.2763 6.9906C19.4283 6.00802 20.96 5.39249 22.4904 5.39249C23.5605 5.39249 24.7068 5.6946 25.6951 6.20566C26.6805 6.71531 27.5784 7.46919 28.0697 8.42496C28.0818 8.44836 28.0926 8.4724 28.1021 8.49696L31.1092 16.4028C31.6809 17.3444 32.0332 18.4026 32.1399 19.4989C32.2466 20.5953 32.1048 21.7016 31.7253 22.7356C31.3457 23.7697 30.7381 24.705 29.9475 25.472C29.1568 26.239 28.2036 26.818 27.1585 27.166C26.1134 27.5141 25.0033 27.6222 23.9107 27.4823C22.8181 27.3425 21.771 26.9583 20.8473 26.3582C19.9235 25.7582 19.1468 24.9578 18.5749 24.0164C18.0029 23.075 17.6504 22.0168 17.5435 20.9205H16.4565C16.3505 22.0176 15.9985 23.0768 15.4267 24.0191C14.855 24.9615 14.0782 25.7629 13.1541 26.3637C12.23 26.9646 11.1823 27.3494 10.089 27.4895C8.99572 27.6297 7.88488 27.5216 6.83909 27.1734C5.7933 26.8251 4.83946 26.2456 4.04848 25.4779C3.25751 24.7102 2.64974 23.7741 2.27036 22.7392C1.89098 21.7043 1.74976 20.5972 1.85718 19.5002C1.9646 18.4032 2.31791 17.3445 2.89084 16.4028L5.8979 8.49696C5.90743 8.47285 5.91827 8.44929 5.93037 8.42637C6.42308 7.46919 7.31955 6.71531 8.30355 6.20566C9.29319 5.6946 10.4395 5.39249 11.5097 5.39249C13.04 5.39249 14.5718 6.00802 15.7238 6.9906ZM3.94119 20.216C3.94119 18.8327 4.49071 17.5061 5.46886 16.5279C6.447 15.5498 7.77365 15.0003 9.15696 15.0003C10.5403 15.0003 11.8669 15.5498 12.8451 16.5279C13.8232 17.5061 14.3727 18.8327 14.3727 20.216C14.3727 21.5993 13.8232 22.926 12.8451 23.9041C11.8669 24.8823 10.5403 25.4318 9.15696 25.4318C7.77365 25.4318 6.447 24.8823 5.46886 23.9041C4.49071 22.926 3.94119 21.5993 3.94119 20.216ZM19.6273 20.216C19.6273 18.8327 20.1768 17.5061 21.155 16.5279C22.1331 15.5498 23.4598 15.0003 24.8431 15.0003C26.2264 15.0003 27.553 15.5498 28.5312 16.5279C29.5093 17.5061 30.0588 18.8327 30.0588 20.216C30.0588 21.5993 29.5093 22.926 28.5312 23.9041C27.553 24.8823 26.2264 25.4318 24.8431 25.4318C23.4598 25.4318 22.1331 24.8823 21.155 23.9041C20.1768 22.926 19.6273 21.5993 19.6273 20.216Z" fill="white"/>
</svg>
