<svg width="24" height="24" viewBox="0 0 24 24" fill="none" xmlns="http://www.w3.org/2000/svg">
<path fill-rule="evenodd" clip-rule="evenodd" d="M11.096 4.91001C11.45 5.21201 11.761 5.57002 12 5.97102C12.239 5.57002 12.55 5.21201 12.904 4.91001C13.72 4.21401 14.805 3.77802 15.889 3.77802C16.647 3.77802 17.459 3.99202 18.159 4.35402C18.857 4.71502 19.493 5.24902 19.841 5.92602C19.8496 5.94259 19.8572 5.95962 19.864 5.97702L21.994 11.577C22.399 12.2439 22.6485 12.9935 22.7241 13.7701C22.7996 14.5467 22.6992 15.3303 22.4304 16.0627C22.1615 16.7952 21.7311 17.4577 21.1711 18.001C20.6111 18.5443 19.9359 18.9544 19.1956 19.2009C18.4553 19.4475 17.669 19.524 16.8951 19.425C16.1211 19.3259 15.3795 19.0538 14.7251 18.6288C14.0708 18.2037 13.5207 17.6367 13.1155 16.9699C12.7104 16.3031 12.4607 15.5536 12.385 14.777H11.615C11.5399 15.5542 11.2906 16.3044 10.8856 16.9719C10.4806 17.6394 9.93038 18.2071 9.2758 18.6327C8.62122 19.0582 7.87913 19.3308 7.10471 19.4301C6.33028 19.5294 5.54344 19.4528 4.80267 19.2061C4.0619 18.9594 3.38626 18.549 2.82599 18.0052C2.26571 17.4614 1.83521 16.7984 1.56648 16.0653C1.29776 15.3322 1.19772 14.548 1.27381 13.771C1.34991 12.9939 1.60017 12.244 2.00599 11.577L4.13599 5.97702C4.14274 5.95994 4.15042 5.94325 4.15899 5.92702C4.50799 5.24902 5.14299 4.71502 5.83999 4.35402C6.54099 3.99202 7.35299 3.77802 8.11099 3.77802C9.19499 3.77802 10.28 4.21401 11.096 4.91001ZM2.74999 14.278C2.74999 13.2982 3.13923 12.3585 3.83209 11.6656C4.52494 10.9728 5.46465 10.5835 6.44449 10.5835C7.42433 10.5835 8.36404 10.9728 9.0569 11.6656C9.74975 12.3585 10.139 13.2982 10.139 14.278C10.139 15.2579 9.74975 16.1976 9.0569 16.8904C8.36404 17.5833 7.42433 17.9725 6.44449 17.9725C5.46465 17.9725 4.52494 17.5833 3.83209 16.8904C3.13923 16.1976 2.74999 15.2579 2.74999 14.278ZM13.861 14.278C13.861 13.2982 14.2502 12.3585 14.9431 11.6656C15.6359 10.9728 16.5757 10.5835 17.5555 10.5835C18.5353 10.5835 19.475 10.9728 20.1679 11.6656C20.8608 12.3585 21.25 13.2982 21.25 14.278C21.25 15.2579 20.8608 16.1976 20.1679 16.8904C19.475 17.5833 18.5353 17.9725 17.5555 17.9725C16.5757 17.9725 15.6359 17.5833 14.9431 16.8904C14.2502 16.1976 13.861 15.2579 13.861 14.278Z" fill="white"/>
</svg>
