<svg width="23" height="23" viewBox="0 0 23 23" fill="none" xmlns="http://www.w3.org/2000/svg">
<path fill-rule="evenodd" clip-rule="evenodd" d="M21.5164 2.82616C21.5724 2.63966 21.5768 2.44149 21.5292 2.25267C21.4817 2.06386 21.3838 1.89145 21.2461 1.75376C21.1085 1.61608 20.9361 1.51825 20.7472 1.47067C20.5584 1.42309 20.3602 1.42753 20.1738 1.48353L2.205 6.87416C2.0064 6.93394 1.82925 7.04973 1.69481 7.20766C1.56036 7.36559 1.47432 7.55895 1.44701 7.76456C1.4197 7.97016 1.45227 8.17927 1.54082 8.36683C1.62937 8.55438 1.77014 8.71241 1.94625 8.82197L8.55588 12.9232L6.06757 15.41C5.96455 15.5094 5.88236 15.6284 5.8258 15.7599C5.76923 15.8914 5.73942 16.0328 5.73811 16.176C5.7368 16.3191 5.76401 16.4611 5.81816 16.5936C5.87231 16.7262 5.9523 16.8466 6.05348 16.9479C6.15466 17.0491 6.275 17.1292 6.40747 17.1835C6.53994 17.2378 6.6819 17.2651 6.82505 17.2639C6.9682 17.2628 7.10969 17.2331 7.24125 17.1767C7.37281 17.1202 7.49181 17.0381 7.59132 16.9352L10.0796 14.4483L14.1794 21.0537C14.2889 21.2298 14.447 21.3705 14.6345 21.4591C14.8221 21.5476 15.0312 21.5802 15.2368 21.5529C15.4424 21.5256 15.6358 21.4395 15.7937 21.3051C15.9516 21.1707 16.0674 20.9935 16.1272 20.7949L21.5164 2.82616ZM11.6451 12.88L14.7486 17.8825L18.2231 6.30203L11.6451 12.88ZM16.6979 4.77684L5.11738 8.25128L10.1199 11.3563L16.6979 4.77684Z" fill="#496886"/>
</svg>
