<svg width="31" height="23" viewBox="0 0 31 23" fill="none" xmlns="http://www.w3.org/2000/svg">
<path fill-rule="evenodd" clip-rule="evenodd" d="M13.9015 1.59812C14.4013 2.02447 14.8403 2.52988 15.1778 3.096C15.5152 2.52988 15.9542 2.02447 16.454 1.59812C17.606 0.615529 19.1378 0 20.6681 0C21.7382 0 22.8846 0.302118 23.8728 0.813176C24.8582 1.32282 25.7561 2.07671 26.2474 3.03247C26.2595 3.05588 26.2703 3.07991 26.2799 3.10447L29.2869 11.0104C29.8587 11.9519 30.211 13.0101 30.3176 14.1064C30.4243 15.2028 30.2826 16.3091 29.903 17.3431C29.5235 18.3772 28.9158 19.3125 28.1252 20.0795C27.3346 20.8465 26.3813 21.4255 25.3362 21.7735C24.2911 22.1216 23.1811 22.2297 22.0885 22.0898C20.9958 21.95 19.9488 21.5658 19.025 20.9657C18.1013 20.3657 17.3246 19.5653 16.7526 18.6239C16.1807 17.6825 15.8282 16.6243 15.7213 15.528H14.6342C14.5282 16.6251 14.1762 17.6843 13.6045 18.6267C13.0327 19.569 12.2559 20.3704 11.3318 20.9713C10.4077 21.5721 9.36007 21.9569 8.26676 22.097C7.17345 22.2372 6.06261 22.1291 5.01682 21.7809C3.97103 21.4326 3.01719 20.8531 2.22622 20.0854C1.43524 19.3177 0.827471 18.3817 0.448094 17.3467C0.0687172 16.3118 -0.0725093 15.2047 0.0349136 14.1077C0.142337 13.0107 0.495646 11.952 1.06858 11.0104L4.07563 3.10447C4.08516 3.08037 4.096 3.0568 4.1081 3.03388C4.60081 2.07671 5.49728 1.32282 6.48128 0.813176C7.47093 0.302118 8.61728 0 9.6874 0C11.2178 0 12.7495 0.615529 13.9015 1.59812ZM2.11893 14.8235C2.11893 13.4402 2.66844 12.1136 3.64659 11.1354C4.62474 10.1573 5.95139 9.60776 7.33469 9.60776C8.718 9.60776 10.0446 10.1573 11.0228 11.1354C12.0009 12.1136 12.5505 13.4402 12.5505 14.8235C12.5505 16.2068 12.0009 17.5335 11.0228 18.5116C10.0446 19.4898 8.718 20.0393 7.33469 20.0393C5.95139 20.0393 4.62474 19.4898 3.64659 18.5116C2.66844 17.5335 2.11893 16.2068 2.11893 14.8235ZM17.805 14.8235C17.805 13.4402 18.3546 12.1136 19.3327 11.1354C20.3109 10.1573 21.6375 9.60776 23.0208 9.60776C24.4041 9.60776 25.7308 10.1573 26.7089 11.1354C27.6871 12.1136 28.2366 13.4402 28.2366 14.8235C28.2366 16.2068 27.6871 17.5335 26.7089 18.5116C25.7308 19.4898 24.4041 20.0393 23.0208 20.0393C21.6375 20.0393 20.3109 19.4898 19.3327 18.5116C18.3546 17.5335 17.805 16.2068 17.805 14.8235Z" fill="#707070"/>
</svg>
